<svg xmlns="http://www.w3.org/2000/svg" xmlns:xlink="http://www.w3.org/1999/xlink" viewBox="0 0 1500 1000"><defs><style>.cls-1{font-size:150px;font-family:BookAntiqua, Book Antiqua;}.cls-2{fill:url(#Dégradé_sans_nom_4);}.cls-3{fill:url(#Dégradé_sans_nom_4-2);}.cls-4{fill:url(#Dégradé_sans_nom_4-3);}.cls-5{fill:url(#Dégradé_sans_nom_4-4);}.cls-6{fill:url(#Dégradé_sans_nom_4-5);}</style><linearGradient id="Dégradé_sans_nom_4" y1="500" x2="1500" y2="500" gradientUnits="userSpaceOnUse"><stop offset="0.14" stop-color="#e58a0b"/><stop offset="0.46" stop-color="#ae6ca6"/><stop offset="0.7" stop-color="#8f5bfe"/></linearGradient><linearGradient id="Dégradé_sans_nom_4-2" x1="375.62" y1="835.66" x2="1154.69" y2="278.88" gradientTransform="matrix(1, 0, 0, -1, -12.4, 905.21)" xlink:href="#Dégradé_sans_nom_4"/><linearGradient id="Dégradé_sans_nom_4-3" x1="155.25" y1="647.83" x2="941.66" y2="85.81" gradientTransform="matrix(1, 0, 0, -1, 0, 1000.11)" xlink:href="#Dégradé_sans_nom_4"/><linearGradient id="Dégradé_sans_nom_4-4" x1="288.15" y1="833.78" x2="1074.56" y2="271.76" gradientTransform="matrix(1, 0, 0, -1, 0, 1000.11)" xlink:href="#Dégradé_sans_nom_4"/><linearGradient id="Dégradé_sans_nom_4-5" x1="269.82" y1="649.02" x2="1027.28" y2="107.68" gradientTransform="matrix(1, 0, 0, -1, -12.4, 905.21)" xlink:href="#Dégradé_sans_nom_4"/></defs><g id="Calque_2" data-name="Calque 2"><text class="cls-1" transform="translate(480.8 839.9)">Orinoco</text><path class="cls-2" d="M1490,10V990H10V10H1490m10-10H0V1000H1500V0Z"/><path class="cls-3" d="M769.7,479.3H1005a10.5,10.5,0,0,0,10.2-8.1l62.5-268.3a10.5,10.5,0,0,0-7.9-12.6,8.5,8.5,0,0,0-2.3-.3H522.3a10.4,10.4,0,0,1-9.7-6.5l-20.8-52.1a10.4,10.4,0,0,0-9.7-6.6H419.2a10.5,10.5,0,0,0-10.5,10.5v10.8a10.7,10.7,0,0,0,6.4,9.7l3.7,1.6a10.6,10.6,0,0,0,11-1.9l6.6-5.8a10.6,10.6,0,0,1,7-2.7h26a10.5,10.5,0,0,1,10.1,7.6l94.8,326.2a10.5,10.5,0,0,1-.5,7l-34.9,82.5a10.4,10.4,0,0,0,12.9,14h0a10.7,10.7,0,0,0,6.4-5.9l37.2-88.6a10.5,10.5,0,0,1,9.4-6.4Z"/><circle class="cls-4" cx="559.5" cy="641.2" r="40.9"/><circle class="cls-5" cx="952.6" cy="641.2" r="40.9"/><path class="cls-6" d="M611.6,614.8l2.3,5.5a10.4,10.4,0,0,0,9.7,6.3H888.1a10.5,10.5,0,0,0,9.3-5.5l2.9-5.5a10.6,10.6,0,0,0-4.4-14.2,10.4,10.4,0,0,0-4.9-1.2H621.2a10.6,10.6,0,0,0-10.5,10.5A9.8,9.8,0,0,0,611.6,614.8Z"/></g></svg>